<?xml version="1.0" standalone="no"?>
<!DOCTYPE svg PUBLIC "-//W3C//DTD SVG 20010904//EN"
 "http://www.w3.org/TR/2001/REC-SVG-20010904/DTD/svg10.dtd">
<svg version="1.0" xmlns="http://www.w3.org/2000/svg"
 width="612.000000pt" height="408.000000pt" viewBox="0 0 612.000000 408.000000"
 preserveAspectRatio="xMidYMid meet">

<g transform="translate(0.000000,408.000000) scale(0.100000,-0.100000)"
fill="#000000" stroke="none">
<path d="M5267 2152 c-15 -17 -15 -20 1 -47 10 -17 24 -61 31 -99 22 -123 82
-216 146 -228 16 -2 21 -12 23 -48 5 -79 22 -150 38 -150 7 0 32 7 54 16 39
16 40 17 40 67 0 28 5 77 12 109 13 64 7 86 -29 102 -35 16 -42 38 -30 85 11
39 17 45 72 70 59 27 115 79 115 106 0 12 -39 15 -212 17 -117 2 -220 7 -229
11 -10 5 -21 1 -32 -11z m133 -135 l65 -23 3 -42 c2 -26 8 -42 16 -42 19 0 40
-50 26 -64 -15 -15 -84 -13 -103 3 -22 17 -63 107 -71 154 -4 20 -6 37 -4 37
2 0 32 -11 68 -23z"/>
<path d="M3031 2064 c0 -11 3 -14 6 -6 3 7 2 16 -1 19 -3 4 -6 -2 -5 -13z"/>
<path d="M2978 2058 c9 -9 9 -15 -1 -27 -10 -12 -9 -14 6 -8 13 5 20 0 27 -16
5 -12 9 -20 10 -17 10 35 8 50 -5 50 -9 0 -18 7 -21 15 -4 8 -11 15 -17 15 -8
0 -7 -4 1 -12z"/>
<path d="M3226 2045 c4 -8 8 -15 10 -15 2 0 4 7 4 15 0 8 -4 15 -10 15 -5 0
-7 -7 -4 -15z"/>
<path d="M3308 2028 c-18 -22 -16 -38 5 -38 7 0 6 4 -3 10 -8 5 -10 10 -5 10
6 0 16 9 23 20 16 27 2 25 -20 -2z"/>
<path d="M4920 2035 c0 -8 2 -15 4 -15 2 0 6 7 10 15 3 8 1 15 -4 15 -6 0 -10
-7 -10 -15z"/>
<path d="M2930 2025 c7 -8 17 -15 22 -15 5 0 3 7 -6 15 -8 8 -18 15 -22 15 -3
0 -1 -7 6 -15z"/>
<path d="M4835 2020 c3 -5 11 -10 16 -10 6 0 7 5 4 10 -3 6 -11 10 -16 10 -6
0 -7 -4 -4 -10z"/>
<path d="M4896 2013 c-6 -14 -5 -15 5 -6 7 7 10 15 7 18 -3 3 -9 -2 -12 -12z"/>
<path d="M2860 2010 c-8 -5 -10 -10 -5 -10 6 0 17 5 25 10 8 5 11 10 5 10 -5
0 -17 -5 -25 -10z"/>
<path d="M3053 2013 c9 -2 25 -2 35 0 9 3 1 5 -18 5 -19 0 -27 -2 -17 -5z"/>
<path d="M2965 2000 c-3 -5 -1 -18 5 -27 10 -16 11 -15 6 5 -3 18 -1 22 10 18
9 -3 12 -1 9 4 -8 13 -22 13 -30 0z"/>
<path d="M4915 2000 c-3 -5 -1 -10 4 -10 6 0 11 5 11 10 0 6 -2 10 -4 10 -3 0
-8 -4 -11 -10z"/>
<path d="M4995 2000 c3 -5 13 -10 21 -10 8 0 12 5 9 10 -3 6 -13 10 -21 10 -8
0 -12 -4 -9 -10z"/>
<path d="M3120 1996 c0 -2 7 -7 16 -10 8 -3 12 -2 9 4 -6 10 -25 14 -25 6z"/>
<path d="M3335 1991 c-3 -5 -1 -12 5 -16 5 -3 10 1 10 9 0 18 -6 21 -15 7z"/>
<path d="M3375 1990 c3 -5 8 -10 11 -10 2 0 4 5 4 10 0 6 -5 10 -11 10 -5 0
-7 -4 -4 -10z"/>
<path d="M4850 1996 c0 -2 7 -7 16 -10 8 -3 12 -2 9 4 -6 10 -25 14 -25 6z"/>
<path d="M3224 1975 c11 -9 29 -12 39 -9 16 5 19 3 14 -10 -4 -10 -3 -15 3
-11 6 3 10 13 10 22 0 11 -6 14 -24 9 -14 -3 -28 -2 -31 4 -3 5 -12 10 -18 10
-7 0 -3 -7 7 -15z"/>
<path d="M2936 1964 c-11 -8 -28 -12 -38 -8 -13 4 -16 1 -12 -11 7 -18 39 -12
62 12 20 19 11 24 -12 7z"/>
<path d="M3190 1972 c0 -6 -12 -13 -26 -16 -15 -4 -24 -9 -21 -12 2 -3 20 1
38 9 22 8 29 16 21 21 -7 4 -12 3 -12 -2z"/>
<path d="M3408 1973 c6 -2 18 -2 25 0 6 3 1 5 -13 5 -14 0 -19 -2 -12 -5z"/>
<path d="M3001 1954 c0 -11 3 -14 6 -6 3 7 2 16 -1 19 -3 4 -6 -2 -5 -13z"/>
<path d="M3080 1955 c7 -9 15 -13 17 -11 7 7 -7 26 -19 26 -6 0 -6 -6 2 -15z"/>
<path d="M3300 1961 c0 -6 5 -13 10 -16 6 -3 10 1 10 9 0 9 -4 16 -10 16 -5 0
-10 -4 -10 -9z"/>
<path d="M4930 1956 c0 -8 5 -18 10 -21 6 -3 10 1 10 9 0 8 -4 18 -10 21 -5 3
-10 -1 -10 -9z"/>
<path d="M3030 1949 c0 -5 5 -7 10 -4 6 3 10 1 10 -4 0 -6 7 -11 16 -11 14 0
14 3 4 15 -14 17 -40 20 -40 4z"/>
<path d="M4860 1950 c0 -5 5 -10 10 -10 6 0 10 5 10 10 0 6 -4 10 -10 10 -5 0
-10 -4 -10 -10z"/>
<path d="M4980 1956 c0 -3 14 -13 32 -22 l32 -16 -25 -14 -24 -13 28 -1 c15 0
27 -5 27 -12 0 -6 2 -9 5 -6 10 9 -16 66 -33 72 -9 3 -23 9 -29 12 -7 3 -13 3
-13 0z"/>
<path d="M3340 1939 c0 -5 4 -8 8 -5 15 9 35 -12 35 -38 0 -15 7 -31 18 -36
30 -17 35 -11 9 10 -23 18 -23 20 -5 20 20 1 20 1 1 15 -11 8 -16 15 -11 15
14 0 -28 29 -42 30 -7 0 -13 -5 -13 -11z"/>
<path d="M4784 1928 l-19 -23 25 20 c14 11 27 21 29 22 2 2 0 3 -6 3 -5 0 -18
-10 -29 -22z"/>
<path d="M2870 1933 c0 -6 8 -17 18 -24 16 -13 16 -13 2 6 -8 11 -16 22 -17
24 -2 2 -3 0 -3 -6z"/>
<path d="M3216 1931 c-4 -5 -2 -12 3 -15 5 -4 12 0 14 6 4 10 8 9 17 -2 10
-13 11 -13 7 0 -4 18 -33 25 -41 11z"/>
<path d="M3607 1919 c-11 -15 -16 -17 -20 -7 -4 11 -6 10 -6 0 -1 -8 13 -27
30 -43 16 -15 29 -34 28 -41 -3 -23 1 -38 10 -38 8 0 10 60 1 60 -3 1 -16 10
-29 20 -22 19 -23 21 -7 45 20 30 13 34 -7 4z"/>
<path d="M3512 1922 c-8 -6 -2 -9 18 -9 20 0 26 3 18 9 -7 4 -15 8 -18 8 -3 0
-11 -4 -18 -8z"/>
<path d="M4861 1913 c0 -11 3 -13 6 -5 2 6 10 9 15 6 7 -4 8 -2 4 4 -11 18
-26 14 -25 -5z"/>
<path d="M1044 1896 c33 -30 37 -31 30 -12 -3 7 -17 19 -32 25 l-27 12 29 -25z"/>
<path d="M2986 1847 c-11 -112 10 -257 38 -257 12 0 12 8 0 48 -8 26 -18 101
-22 167 l-8 120 -8 -78z"/>
<path d="M3289 1801 l-4 -124 -42 -14 c-60 -20 -103 -72 -103 -124 0 -81 51
-127 154 -139 34 -4 83 -14 109 -23 l48 -15 6 28 c5 26 10 29 47 32 l41 3 3
57 3 57 -56 -6 c-51 -5 -55 -4 -55 15 0 11 -3 27 -6 36 -4 10 -1 16 8 16 24 0
64 52 91 120 36 89 43 127 11 60 -25 -54 -26 -55 -38 -31 -29 52 -106 67 -151
29 -16 -15 -29 -40 -34 -68 -8 -42 -9 -41 -11 35 -1 44 -5 103 -9 130 -7 42
-9 29 -12 -74z"/>
<path d="M3354 1909 c-3 -6 -1 -16 4 -21 8 -8 11 -5 9 11 -1 24 -3 25 -13 10z"/>
<path d="M4988 1913 c7 -3 16 -2 19 1 4 3 -2 6 -13 5 -11 0 -14 -3 -6 -6z"/>
<path d="M2755 1900 c-3 -5 -1 -10 4 -10 6 0 11 5 11 10 0 6 -2 10 -4 10 -3 0
-8 -4 -11 -10z"/>
<path d="M3060 1894 c0 -8 5 -12 10 -9 6 4 8 11 5 16 -9 14 -15 11 -15 -7z"/>
<path d="M985 1880 c-5 -14 -15 -20 -38 -20 l-32 0 33 -21 c17 -12 32 -27 32
-35 0 -18 20 -18 48 2 27 19 28 27 0 64 -26 35 -34 37 -43 10z"/>
<path d="M2860 1889 c0 -5 5 -7 10 -4 6 3 10 8 10 11 0 2 -4 4 -10 4 -5 0 -10
-5 -10 -11z"/>
<path d="M3187 1893 c-4 -3 -7 -13 -7 -22 1 -13 3 -13 11 2 11 19 8 33 -4 20z"/>
<path d="M3236 1891 c-4 -7 -5 -15 -2 -18 9 -9 19 4 14 18 -4 11 -6 11 -12 0z"/>
<path d="M3550 1889 c0 -5 5 -7 10 -4 6 3 10 8 10 11 0 2 -4 4 -10 4 -5 0 -10
-5 -10 -11z"/>
<path d="M3638 1893 c7 -3 16 -2 19 1 4 3 -2 6 -13 5 -11 0 -14 -3 -6 -6z"/>
<path d="M4827 1893 c-4 -3 -7 -11 -7 -17 0 -6 5 -5 12 2 6 6 9 14 7 17 -3 3
-9 2 -12 -2z"/>
<path d="M2720 1882 c0 -5 7 -15 15 -22 8 -7 15 -9 15 -6 0 4 -7 14 -15 22 -8
9 -15 11 -15 6z"/>
<path d="M2795 1880 c-3 -5 -1 -10 4 -10 6 0 11 5 11 10 0 6 -2 10 -4 10 -3 0
-8 -4 -11 -10z"/>
<path d="M4921 1890 c-1 -3 8 -48 19 -100 11 -52 20 -119 20 -148 0 -39 4 -52
13 -49 15 5 12 79 -8 168 -12 55 -44 146 -44 129z"/>
<path d="M2194 1865 c11 -8 24 -15 30 -15 5 0 1 7 -10 15 -10 8 -23 14 -29 14
-5 0 -1 -6 9 -14z"/>
<path d="M3080 1871 c0 -6 5 -13 10 -16 6 -3 10 1 10 9 0 9 -4 16 -10 16 -5 0
-10 -4 -10 -9z"/>
<path d="M3497 1866 c-3 -8 0 -16 6 -19 7 -3 13 3 13 14 0 22 -12 25 -19 5z"/>
<path d="M3531 1864 c0 -11 3 -14 6 -6 3 7 2 16 -1 19 -3 4 -6 -2 -5 -13z"/>
<path d="M5143 1838 c0 -18 2 -27 5 -19 3 10 6 10 12 1 5 -8 9 -6 14 6 4 10 4
15 0 11 -5 -4 -13 2 -19 14 -11 19 -12 18 -12 -13z"/>
<path d="M2678 1853 c-10 -2 -18 -9 -18 -14 0 -13 13 -11 36 6 19 14 14 17
-18 8z"/>
<path d="M2770 1850 c0 -5 5 -10 11 -10 5 0 7 5 4 10 -3 6 -8 10 -11 10 -2 0
-4 -4 -4 -10z"/>
<path d="M3216 1843 c-6 -14 -5 -15 5 -6 7 7 10 15 7 18 -3 3 -9 -2 -12 -12z"/>
<path d="M4841 1843 c0 -4 4 -17 9 -28 8 -19 9 -19 9 2 1 12 -3 25 -9 28 -5 3
-10 3 -9 -2z"/>
<path d="M2730 1831 c0 -5 5 -13 10 -16 6 -3 10 -2 10 4 0 5 -4 13 -10 16 -5
3 -10 2 -10 -4z"/>
<path d="M2823 1824 c-3 -8 -1 -20 6 -27 8 -8 11 -4 11 16 0 30 -7 35 -17 11z"/>
<path d="M734 1798 c-27 -33 -68 -115 -80 -162 -5 -22 -2 -25 46 -35 28 -6 53
-11 55 -11 3 0 13 17 24 38 11 20 37 54 59 75 l39 38 6 -45 c7 -51 58 -164
112 -246 19 -30 33 -61 30 -68 -2 -7 7 -18 20 -24 26 -12 31 -23 60 -154 15
-68 15 -72 -4 -117 -23 -52 -19 -57 20 -24 22 18 29 36 37 92 5 39 6 72 2 75
-7 6 -42 124 -45 154 -1 13 -10 20 -29 22 -16 2 -29 4 -31 6 -8 10 -81 191
-92 227 -7 24 -13 72 -13 106 l0 62 -57 12 c-98 19 -128 15 -159 -21z"/>
<path d="M2706 1813 c-11 -11 -7 -20 9 -20 8 0 15 4 15 8 0 11 -16 20 -24 12z"/>
<path d="M2850 1804 c0 -8 8 -23 17 -32 16 -16 16 -16 10 1 -4 10 -7 25 -7 33
0 8 -4 14 -10 14 -5 0 -10 -7 -10 -16z"/>
<path d="M5106 1791 c-4 -5 1 -8 9 -7 21 3 31 16 12 16 -9 0 -18 -4 -21 -9z"/>
<path d="M5190 1779 c0 -6 7 -17 15 -25 13 -14 15 -14 15 0 0 9 -5 16 -11 16
-5 0 -7 5 -4 10 3 6 1 10 -4 10 -6 0 -11 -5 -11 -11z"/>
<path d="M2800 1765 c0 -8 61 -109 86 -142 14 -18 32 -33 40 -33 10 0 1 16
-26 48 -23 26 -53 66 -67 90 -23 38 -33 50 -33 37z"/>
<path d="M4105 1722 c-116 -44 -124 -45 -232 -46 -62 0 -113 -1 -113 -2 0 -2
71 -138 78 -149 5 -9 9 -25 14 -62 1 -7 6 -13 11 -13 5 0 6 -12 3 -27 -5 -24
-5 -25 5 -9 9 14 8 26 -5 54 -9 19 -16 36 -14 37 2 1 86 57 188 125 102 67
189 126 195 131 15 15 -4 9 -130 -39z"/>
<path d="M5095 1759 c-11 -17 1 -21 15 -4 8 9 8 15 2 15 -6 0 -14 -5 -17 -11z"/>
<path d="M2707 1743 c3 -7 9 -10 14 -7 14 8 11 21 -5 21 -8 0 -12 -6 -9 -14z"/>
<path d="M4655 1721 c-27 -21 -127 -95 -222 -165 l-172 -127 -6 -54 c-4 -31
-11 -57 -15 -60 -10 -6 -11 -608 0 -615 4 -3 10 -47 12 -99 5 -108 2 -112 -92
-132 -101 -21 -89 -29 40 -26 l125 2 39 215 c21 118 39 216 40 216 0 1 42 -9
91 -22 96 -24 270 -33 331 -15 17 5 36 6 41 2 12 -8 76 -107 74 -115 0 -3 8
-15 19 -26 11 -11 20 -27 20 -35 0 -8 4 -15 9 -15 16 0 25 -42 22 -108 -1 -39
2 -62 8 -62 6 0 11 21 11 48 1 44 2 46 16 27 30 -40 15 -67 -61 -107 -55 -29
-64 -37 -44 -38 28 0 221 28 223 32 1 2 -1 68 -4 148 -4 91 -7 116 -8 68 -1
-42 -6 -79 -11 -82 -5 -3 -15 20 -24 52 -8 31 -32 112 -53 180 -29 93 -35 125
-26 131 10 6 9 17 -3 50 -8 24 -16 69 -17 100 -1 40 -2 46 -5 21 -4 -34 -5
-33 -29 34 -13 38 -24 90 -25 115 -1 38 -2 42 -9 21 l-8 -25 -1 27 c-1 15 -5
30 -11 33 -5 3 -10 16 -10 29 0 12 -4 26 -9 32 -5 5 -25 61 -45 124 -34 106
-60 156 -122 233 -12 15 -26 27 -30 27 -5 0 -31 -18 -59 -39z"/>
<path d="M5133 1688 c-7 -29 -15 -64 -18 -78 -5 -19 -4 -22 4 -10 12 18 34
116 29 131 -2 6 -9 -13 -15 -43z"/>
<path d="M3658 1683 c7 -3 16 -2 19 1 4 3 -2 6 -13 5 -11 0 -14 -3 -6 -6z"/>
<path d="M3708 1683 c7 -3 16 -2 19 1 4 3 -2 6 -13 5 -11 0 -14 -3 -6 -6z"/>
<path d="M3611 1651 c-13 -10 -21 -24 -18 -32 4 -10 6 -9 6 4 1 10 9 17 21 17
11 0 20 7 20 15 0 19 0 19 -29 -4z"/>
<path d="M2146 1653 c-4 -4 -21 -7 -39 -8 -25 0 -32 -4 -32 -20 0 -16 6 -20
30 -18 38 3 75 22 75 40 0 14 -22 18 -34 6z"/>
<path d="M3636 1602 c-9 -10 -16 -23 -16 -28 0 -5 5 -1 11 9 5 9 14 17 20 17
5 0 2 -11 -7 -25 -14 -21 -14 -28 -3 -41 11 -14 13 -14 21 0 5 9 6 21 2 27 -3
6 -2 14 4 18 7 4 6 12 -2 23 -12 17 -14 17 -30 0z"/>
<path d="M3782 1560 c0 -14 2 -19 5 -12 2 6 2 18 0 25 -3 6 -5 1 -5 -13z"/>
<path d="M2320 1552 c0 -12 19 -26 26 -19 2 2 -2 10 -11 17 -9 8 -15 8 -15 2z"/>
<path d="M3660 1491 c0 -6 4 -13 10 -16 6 -3 7 1 4 9 -7 18 -14 21 -14 7z"/>
<path d="M2325 1430 c10 -11 20 -20 23 -20 3 0 -3 9 -13 20 -10 11 -20 20 -23
20 -3 0 3 -9 13 -20z"/>
<path d="M3691 1440 c0 -3 6 -25 14 -50 14 -42 15 -43 10 -8 -4 24 -1 38 7 41
7 2 9 8 5 13 -4 5 -12 2 -16 -5 -7 -11 -10 -11 -14 0 -3 8 -6 12 -6 9z"/>
<path d="M3730 1387 c0 -14 5 -29 10 -32 7 -4 8 3 4 22 -9 38 -14 42 -14 10z"/>
<path d="M3877 1385 c-4 -8 1 -35 10 -60 17 -52 28 -56 13 -5 -5 18 -7 37 -3
43 4 6 1 7 -7 2 -9 -5 -10 -2 -5 14 7 24 0 29 -8 6z"/>
<path d="M1541 1345 c-81 -31 -98 -46 -100 -84 -1 -19 27 -10 141 43 91 42
125 66 96 66 -7 0 -22 2 -33 4 -11 3 -58 -10 -104 -29z"/>
<path d="M3846 1363 c-6 -14 -5 -15 5 -6 7 7 10 15 7 18 -3 3 -9 -2 -12 -12z"/>
<path d="M1170 1343 c0 -10 4 -24 9 -32 13 -21 24 5 11 29 -13 25 -20 26 -20
3z"/>
<path d="M953 1331 c-46 -21 -59 -41 -93 -145 -12 -37 -29 -80 -36 -95 -8 -14
-14 -31 -14 -37 0 -12 45 -24 89 -24 26 0 26 0 -6 20 -18 11 -33 23 -33 28 0
4 28 53 61 107 106 172 102 165 87 165 -7 0 -32 -9 -55 -19z"/>
<path d="M3852 1315 c0 -16 2 -22 5 -12 2 9 2 23 0 30 -3 6 -5 -1 -5 -18z"/>
<path d="M5233 1285 c0 -33 2 -45 4 -27 2 18 2 45 0 60 -2 15 -4 0 -4 -33z"/>
<path d="M5683 1330 c-24 -10 -31 -34 -13 -45 6 -3 10 -17 10 -31 0 -14 6 -27
14 -30 8 -3 19 -19 25 -36 15 -43 14 -135 -1 -141 -10 -4 -10 -6 0 -6 8 -1 12
-22 12 -71 0 -44 4 -70 11 -70 7 0 10 23 7 67 -2 47 1 68 10 70 9 4 13 -15 14
-69 l2 -73 3 68 c3 55 7 67 21 67 15 0 17 -9 14 -65 -3 -42 0 -65 7 -65 7 0
11 36 10 108 -1 64 -4 95 -8 77 -7 -27 -10 -21 -35 60 -15 49 -33 113 -39 142
-12 55 -20 61 -64 43z m79 -245 c2 -11 -1 -22 -7 -25 -5 -3 -11 11 -13 30 -4
37 15 33 20 -5z"/>
<path d="M3731 1314 c0 -11 3 -14 6 -6 3 7 2 16 -1 19 -3 4 -6 -2 -5 -13z"/>
<path d="M5033 1280 c0 -30 2 -43 4 -27 2 15 2 39 0 55 -2 15 -4 2 -4 -28z"/>
<path d="M5403 1275 c0 -33 2 -45 4 -27 2 18 2 45 0 60 -2 15 -4 0 -4 -33z"/>
<path d="M5479 1328 c0 -2 -8 -61 -17 -133 -16 -120 -19 -130 -39 -133 -14 -2
-23 3 -26 15 -3 10 -5 -26 -6 -79 -1 -60 3 -98 9 -98 6 0 10 30 10 70 0 92 18
90 23 -2 l3 -73 2 72 c2 60 5 71 17 67 13 -5 14 -18 9 -70 -5 -51 -4 -64 7
-64 11 0 13 18 10 91 -3 83 0 100 35 205 21 62 36 115 33 118 -6 5 -69 18 -70
14z"/>
<path d="M573 1295 c-55 -25 -233 -187 -233 -211 0 -10 12 -14 38 -14 33 1 35
2 19 14 -16 13 -2 23 149 102 92 49 166 94 164 99 -4 8 -64 35 -80 35 -3 0
-29 -11 -57 -25z"/>
<path d="M5073 1275 c0 -27 2 -38 4 -22 2 15 2 37 0 50 -2 12 -4 0 -4 -28z"/>
<path d="M5113 1275 c0 -27 2 -38 4 -22 2 15 2 37 0 50 -2 12 -4 0 -4 -28z"/>
<path d="M5943 1270 c0 -30 2 -43 4 -27 2 15 2 39 0 55 -2 15 -4 2 -4 -28z"/>
<path d="M5983 1270 c0 -30 2 -43 4 -27 2 15 2 39 0 55 -2 15 -4 2 -4 -28z"/>
<path d="M3873 1255 c0 -33 2 -45 4 -27 2 18 2 45 0 60 -2 15 -4 0 -4 -33z"/>
<path d="M4113 1270 c0 -25 2 -35 4 -22 2 12 2 32 0 45 -2 12 -4 2 -4 -23z"/>
<path d="M5443 1265 c0 -27 2 -38 4 -22 2 15 2 37 0 50 -2 12 -4 0 -4 -28z"/>
<path d="M5643 1265 c0 -27 2 -38 4 -22 2 15 2 37 0 50 -2 12 -4 0 -4 -28z"/>
<path d="M5773 1265 c0 -27 2 -38 4 -22 2 15 2 37 0 50 -2 12 -4 0 -4 -28z"/>
<path d="M6073 1265 c0 -27 2 -38 4 -22 2 15 2 37 0 50 -2 12 -4 0 -4 -28z"/>
<path d="M4193 1265 c0 -22 2 -30 4 -17 2 12 2 30 0 40 -3 9 -5 -1 -4 -23z"/>
<path d="M6023 1260 c0 -25 2 -35 4 -22 2 12 2 32 0 45 -2 12 -4 2 -4 -23z"/>
<path d="M6113 1260 c0 -25 2 -35 4 -22 2 12 2 32 0 45 -2 12 -4 2 -4 -23z"/>
<path d="M3552 1255 c-13 -34 -84 -148 -107 -172 -8 -7 -31 -34 -51 -59 -74
-90 -202 -176 -316 -214 -58 -19 -63 -19 -72 -3 -9 16 -10 16 -17 -2 -7 -17
-8 -18 -8 -2 -1 9 -5 17 -11 17 -5 0 -10 -8 -11 -17 0 -11 -3 -13 -6 -5 -7 17
-23 15 -23 -3 0 -8 -7 -15 -16 -15 -11 0 -4 14 25 49 22 26 48 54 56 61 9 7
21 23 26 34 6 12 -21 -11 -59 -50 l-69 -71 -57 5 -56 4 -2 62 -1 61 -7 -70
c-11 -106 -11 -165 0 -165 6 0 10 15 10 34 0 30 3 33 21 29 15 -4 17 -8 8 -14
-10 -6 -10 -11 -1 -22 8 -10 32 -14 77 -13 36 1 65 -2 65 -7 0 -4 16 -7 35 -5
19 1 35 7 35 14 0 6 43 26 96 43 106 34 222 89 311 147 65 42 172 148 218 213
l29 43 -28 21 c-16 11 -41 40 -56 63 l-27 42 -11 -33z"/>
<path d="M4073 1255 c0 -22 2 -30 4 -17 2 12 2 30 0 40 -3 9 -5 -1 -4 -23z"/>
<path d="M4152 1265 c0 -16 2 -22 5 -12 2 9 2 23 0 30 -3 6 -5 -1 -5 -18z"/>
<path d="M4992 1260 c0 -19 2 -27 5 -17 2 9 2 25 0 35 -3 9 -5 1 -5 -18z"/>
<path d="M5252 1260 c0 -19 2 -27 5 -17 2 9 2 25 0 35 -3 9 -5 1 -5 -18z"/>
<path d="M5813 1255 c0 -22 2 -30 4 -17 2 12 2 30 0 40 -3 9 -5 -1 -4 -23z"/>
<path d="M5852 1260 c0 -19 2 -27 5 -17 2 9 2 25 0 35 -3 9 -5 1 -5 -18z"/>
<path d="M1296 1266 c-25 -8 -48 -24 -63 -46 -35 -53 -31 -60 25 -45 119 34
122 36 122 72 0 37 -14 41 -84 19z"/>
<path d="M3742 1270 c0 -8 4 -26 8 -40 6 -20 8 -21 8 -5 0 11 -3 29 -8 40 -5
12 -8 14 -8 5z"/>
<path d="M5132 1255 c0 -16 2 -22 5 -12 2 9 2 23 0 30 -3 6 -5 -1 -5 -18z"/>
<path d="M5562 1255 c0 -16 2 -22 5 -12 2 9 2 23 0 30 -3 6 -5 -1 -5 -18z"/>
<path d="M5662 1255 c0 -16 2 -22 5 -12 2 9 2 23 0 30 -3 6 -5 -1 -5 -18z"/>
<path d="M6042 1255 c0 -16 2 -22 5 -12 2 9 2 23 0 30 -3 6 -5 -1 -5 -18z"/>
<path d="M3893 1234 c1 -23 5 -40 10 -37 10 6 9 45 -3 63 -7 11 -9 3 -7 -26z"/>
<path d="M5051 1254 c0 -11 3 -14 6 -6 3 7 2 16 -1 19 -3 4 -6 -2 -5 -13z"/>
<path d="M5150 1251 c0 -25 6 -27 13 -6 4 8 2 17 -3 20 -6 4 -10 -3 -10 -14z"/>
<path d="M5192 1250 c0 -14 2 -19 5 -12 2 6 2 18 0 25 -3 6 -5 1 -5 -13z"/>
<path d="M5270 1249 c0 -11 4 -18 10 -14 5 3 7 12 3 20 -7 21 -13 19 -13 -6z"/>
<path d="M5352 1250 c0 -14 2 -19 5 -12 2 6 2 18 0 25 -3 6 -5 1 -5 -13z"/>
<path d="M4032 1240 c0 -14 2 -19 5 -12 2 6 2 18 0 25 -3 6 -5 1 -5 -13z"/>
<path d="M5310 1250 c0 -5 5 -10 10 -10 6 0 10 5 10 10 0 6 -4 10 -10 10 -5 0
-10 -4 -10 -10z"/>
<path d="M5371 1244 c0 -11 3 -14 6 -6 3 7 2 16 -1 19 -3 4 -6 -2 -5 -13z"/>
<path d="M5895 1240 c-3 -5 -1 -10 4 -10 6 0 11 5 11 10 0 6 -2 10 -4 10 -3 0
-8 -4 -11 -10z"/>
<path d="M3851 1204 c0 -11 3 -14 6 -6 3 7 2 16 -1 19 -3 4 -6 -2 -5 -13z"/>
<path d="M3758 1193 c6 -2 18 -2 25 0 6 3 1 5 -13 5 -14 0 -19 -2 -12 -5z"/>
<path d="M3851 1179 c-13 -5 -40 -7 -60 -4 -35 5 -36 5 -6 -5 33 -12 95 -5 95
10 0 6 -1 10 -2 9 -2 0 -14 -5 -27 -10z"/>
<path d="M3899 1166 c-6 -6 -102 -28 -130 -29 -13 -1 -18 -17 -22 -73 -4 -39
-17 -104 -31 -145 -22 -67 -24 -70 -26 -39 -2 27 -5 20 -15 -33 -16 -92 -35
-110 -35 -35 0 31 -4 60 -10 63 -6 4 -10 -23 -10 -73 0 -72 -3 -83 -30 -121
-17 -23 -35 -39 -40 -36 -14 8 -59 -35 -53 -51 9 -25 -86 -18 -114 8 -13 12
-23 17 -23 11 0 -6 7 -16 15 -23 13 -11 13 -15 3 -22 -10 -7 -9 -11 4 -18 16
-10 16 -13 -2 -43 -11 -18 -20 -36 -20 -41 0 -5 27 -6 61 -2 49 5 68 12 96 36
19 17 40 29 46 27 12 -4 57 36 57 50 0 4 21 31 46 58 25 28 54 64 65 80 10 17
20 27 20 23 1 -5 2 -13 3 -20 0 -6 7 -13 14 -15 8 -3 12 10 12 46 0 28 4 51 8
51 4 0 14 15 22 33 14 32 14 31 20 -53 7 -114 22 -86 19 37 -1 68 3 109 13
133 33 78 61 240 37 216z"/>
<path d="M5100 1048 c-2 -60 -3 -115 -4 -125 0 -9 4 -18 10 -20 8 -3 10 30 7
114 -6 153 -11 165 -13 31z"/>
<path d="M5260 1088 c0 -36 -3 -93 -7 -128 -5 -50 -3 -62 7 -58 11 3 13 31 11
124 -3 126 -11 172 -11 62z"/>
<path d="M5311 1065 c0 -49 -4 -107 -7 -127 -5 -29 -3 -38 7 -38 11 0 13 21
11 102 -4 142 -9 171 -11 63z"/>
<path d="M5890 1027 c0 -80 4 -127 10 -127 10 0 3 238 -6 249 -2 2 -4 -53 -4
-122z"/>
<path d="M5520 1022 c0 -80 4 -122 11 -122 7 0 8 36 3 118 -3 64 -8 119 -10
121 -2 2 -4 -50 -4 -117z"/>
<path d="M6027 1026 c-4 -66 -5 -121 -2 -124 13 -13 15 13 13 124 l-3 119 -8
-119z"/>
<path d="M5678 1026 c-3 -112 -2 -126 12 -126 8 0 2 220 -6 229 -1 1 -4 -45
-6 -103z"/>
<path d="M6100 1017 c0 -70 4 -117 10 -117 9 0 3 218 -6 229 -2 2 -4 -48 -4
-112z"/>
<path d="M5606 1017 c-8 -98 -5 -130 9 -115 3 3 4 54 3 114 l-3 109 -9 -108z"/>
<path d="M5941 1008 c0 -66 3 -108 9 -108 11 0 12 79 0 160 -6 48 -7 42 -9
-52z"/>
<path d="M5187 1073 c-11 -11 -8 -173 3 -173 6 0 10 37 10 90 0 90 -1 96 -13
83z"/>
<path d="M5564 985 c0 -49 1 -71 3 -48 2 23 2 64 0 90 -2 26 -3 8 -3 -42z"/>
<path d="M5984 985 c0 -49 1 -71 3 -48 2 23 2 64 0 90 -2 26 -3 8 -3 -42z"/>
<path d="M1460 1050 c0 -5 12 -10 26 -10 14 0 23 4 19 10 -3 6 -15 10 -26 10
-10 0 -19 -4 -19 -10z"/>
<path d="M1150 1036 c0 -11 9 -16 26 -16 31 0 28 23 -4 28 -15 2 -22 -2 -22
-12z"/>
<path d="M1760 1038 c0 -15 39 -42 48 -33 9 9 -13 40 -32 43 -9 2 -16 -3 -16
-10z"/>
<path d="M2102 1028 c5 -15 37 -18 41 -3 1 6 -9 12 -22 13 -16 3 -22 -1 -19
-10z"/>
<path d="M5138 975 c-3 -38 -4 -72 -2 -74 11 -11 15 13 12 75 l-3 69 -7 -70z"/>
<path d="M5223 970 c0 -41 2 -58 4 -37 2 20 2 54 0 75 -2 20 -4 3 -4 -38z"/>
<path d="M5643 970 c0 -41 2 -58 4 -37 2 20 2 54 0 75 -2 20 -4 3 -4 -38z"/>
<path d="M5853 970 c0 -41 2 -58 4 -37 2 20 2 54 0 75 -2 20 -4 3 -4 -38z"/>
<path d="M5347 971 c-4 -35 -5 -67 -2 -69 12 -12 16 10 13 69 l-3 64 -8 -64z"/>
<path d="M6063 955 c0 -33 2 -45 4 -27 2 18 2 45 0 60 -2 15 -4 0 -4 -33z"/>
<path d="M3549 835 c-3 -71 -4 -132 -2 -134 2 -3 7 0 12 5 5 5 6 65 2 134 l-7
125 -5 -130z"/>
<path d="M4148 835 c-3 -71 -4 -132 -2 -134 14 -15 19 29 14 139 l-5 125 -7
-130z"/>
<path d="M2611 815 c-1 -84 2 -116 10 -108 7 7 7 44 1 119 l-9 109 -2 -120z"/>
<path d="M3947 822 c-8 -104 -6 -134 8 -120 3 3 4 57 3 119 l-3 114 -8 -113z"/>
<path d="M4030 817 c0 -77 4 -117 11 -117 7 0 9 34 4 113 -4 61 -9 114 -11
116 -2 2 -4 -48 -4 -112z"/>
<path d="M4107 853 c-10 -98 -8 -153 3 -153 6 0 10 43 10 110 0 61 -2 110 -4
110 -2 0 -6 -30 -9 -67z"/>
<path d="M2696 868 c-10 -38 -7 -168 4 -168 6 0 10 38 10 95 0 97 -3 113 -14
73z"/>
<path d="M3466 874 c-10 -26 -7 -174 4 -174 6 0 10 38 10 95 0 95 -2 109 -14
79z"/>
<path d="M3500 785 c0 -49 3 -85 7 -82 7 7 4 159 -3 166 -2 2 -4 -35 -4 -84z"/>
<path d="M2653 780 c0 -47 2 -66 4 -42 2 23 2 61 0 85 -2 23 -4 4 -4 -43z"/>
<path d="M2733 765 c0 -38 2 -53 4 -32 2 20 2 52 0 70 -2 17 -4 1 -4 -38z"/>
<path d="M3981 753 c-1 -29 4 -53 9 -53 12 0 12 57 0 85 -6 15 -9 6 -9 -32z"/>
<path d="M4073 750 c0 -30 2 -43 4 -27 2 15 2 39 0 55 -2 15 -4 2 -4 -28z"/>
<path d="M4186 757 c-5 -26 -6 -51 -2 -54 12 -13 17 6 14 53 l-3 49 -9 -48z"/>
<path d="M3583 728 c1 -16 5 -28 9 -28 10 0 9 9 -2 35 -8 17 -8 16 -7 -7z"/>
<path d="M4561 635 c-1 -60 -4 -120 -7 -132 -5 -16 -2 -23 8 -23 13 0 14 19
11 123 -6 157 -11 172 -12 32z"/>
<path d="M4691 613 c-1 -73 3 -133 8 -133 7 0 4 231 -4 255 -2 6 -4 -50 -4
-122z"/>
<path d="M5441 633 c-1 -61 -4 -118 -7 -127 -4 -10 -1 -16 9 -16 12 0 14 19
10 118 -6 154 -11 165 -12 25z"/>
<path d="M5569 621 c-3 -109 1 -156 14 -141 2 3 1 64 -3 135 l-6 130 -5 -124z"/>
<path d="M5737 618 c-3 -71 -2 -127 4 -133 5 -5 9 42 9 123 0 73 -2 132 -4
132 -1 0 -6 -55 -9 -122z"/>
<path d="M3790 721 c0 -6 5 -13 10 -16 6 -3 10 1 10 9 0 9 -4 16 -10 16 -5 0
-10 -4 -10 -9z"/>
<path d="M5220 607 c0 -83 4 -127 11 -127 7 0 8 39 3 123 -4 67 -8 124 -10
126 -2 2 -4 -53 -4 -122z"/>
<path d="M4400 602 c0 -75 4 -122 10 -122 9 0 3 228 -6 239 -2 2 -4 -50 -4
-117z"/>
<path d="M4858 606 c-4 -66 -5 -122 -3 -125 13 -12 15 15 13 125 l-3 119 -7
-119z"/>
<path d="M5280 607 c0 -70 4 -117 10 -117 9 0 3 218 -6 229 -2 2 -4 -48 -4
-112z"/>
<path d="M5896 609 c-5 -75 -4 -115 3 -122 8 -8 11 25 11 111 0 67 -2 122 -4
122 -2 0 -6 -50 -10 -111z"/>
<path d="M6100 602 c0 -68 4 -122 9 -122 9 0 3 229 -5 239 -2 2 -4 -50 -4
-117z"/>
<path d="M5942 598 c-1 -73 2 -118 8 -118 11 0 11 59 0 165 -6 66 -7 63 -8
-47z"/>
<path d="M6027 602 c-8 -104 -6 -134 8 -120 3 3 4 57 3 119 l-3 114 -8 -113z"/>
<path d="M5821 587 c-1 -70 3 -106 9 -102 12 7 12 87 0 160 -6 42 -8 33 -9
-58z"/>
<path d="M3330 655 c13 -14 26 -25 28 -25 3 0 -5 11 -18 25 -13 14 -26 25 -28
25 -3 0 5 -11 18 -25z"/>
<path d="M4486 634 c-9 -70 -7 -154 4 -154 6 0 10 40 10 100 0 55 -2 100 -4
100 -2 0 -6 -21 -10 -46z"/>
<path d="M4606 634 c-9 -70 -7 -154 4 -154 6 0 10 40 10 100 0 55 -2 100 -4
100 -2 0 -6 -21 -10 -46z"/>
<path d="M4941 583 c-1 -63 3 -103 9 -103 12 0 12 95 1 160 -7 37 -9 27 -10
-57z"/>
<path d="M5368 651 c-12 -52 -10 -177 2 -165 7 7 10 49 8 105 -2 70 -5 85 -10
60z"/>
<path d="M5486 634 c-9 -70 -7 -154 4 -154 6 0 10 40 10 100 0 55 -2 100 -4
100 -2 0 -6 -21 -10 -46z"/>
<path d="M4438 568 c-2 -40 0 -77 4 -82 4 -6 8 27 8 72 0 45 -2 82 -4 82 -2 0
-6 -33 -8 -72z"/>
<path d="M4523 560 c0 -47 2 -66 4 -42 2 23 2 61 0 85 -2 23 -4 4 -4 -43z"/>
<path d="M4641 563 c0 -46 2 -83 7 -83 4 0 6 26 4 57 -5 101 -9 111 -11 26z"/>
<path d="M4760 560 c0 -47 4 -80 10 -80 6 0 10 33 10 80 0 47 -4 80 -10 80 -6
0 -10 -33 -10 -80z"/>
<path d="M5323 560 c0 -47 2 -66 4 -42 2 23 2 61 0 85 -2 23 -4 4 -4 -43z"/>
<path d="M5520 560 c0 -46 3 -80 7 -77 7 7 4 149 -3 156 -2 2 -4 -33 -4 -79z"/>
<path d="M5640 560 c0 -47 4 -80 10 -80 6 0 10 33 10 80 0 47 -4 80 -10 80 -6
0 -10 -33 -10 -80z"/>
<path d="M5983 560 c0 -47 2 -66 4 -42 2 23 2 61 0 85 -2 23 -4 4 -4 -43z"/>
<path d="M5183 550 c0 -41 2 -58 4 -37 2 20 2 54 0 75 -2 20 -4 3 -4 -38z"/>
<path d="M5403 550 c0 -41 2 -58 4 -37 2 20 2 54 0 75 -2 20 -4 3 -4 -38z"/>
<path d="M4983 545 c0 -38 2 -53 4 -32 2 20 2 52 0 70 -2 17 -4 1 -4 -38z"/>
<path d="M5863 545 c0 -38 2 -53 4 -32 2 20 2 52 0 70 -2 17 -4 1 -4 -38z"/>
<path d="M6063 545 c0 -38 2 -53 4 -32 2 20 2 52 0 70 -2 17 -4 1 -4 -38z"/>
<path d="M4896 564 c-10 -25 -7 -84 4 -84 6 0 10 23 10 50 0 52 -4 61 -14 34z"/>
<path d="M5776 564 c-10 -25 -7 -74 4 -74 6 0 10 20 10 45 0 47 -4 55 -14 29z"/>
<path d="M4726 512 c-4 -13 -5 -26 -2 -29 10 -11 18 4 14 29 l-4 23 -8 -23z"/>
<path d="M5602 505 c0 -16 2 -22 5 -12 2 9 2 23 0 30 -3 6 -5 -1 -5 -18z"/>
</g>
</svg>
